<?xml version="1.0" standalone="no"?>
<!DOCTYPE svg PUBLIC "-//W3C//DTD SVG 20010904//EN"
 "http://www.w3.org/TR/2001/REC-SVG-20010904/DTD/svg10.dtd">
<svg version="1.0" xmlns="http://www.w3.org/2000/svg"
 width="2701.000000pt" height="1045.000000pt" viewBox="0 0 2701.000000 1045.000000"
 preserveAspectRatio="xMidYMid meet">

<g transform="translate(0.000000,1045.000000) scale(0.100000,-0.100000)"
fill="#000000" stroke="none">
<path d="M5015 9743 c-33 -2 -130 -10 -215 -19 -825 -84 -1622 -396 -2285
-894 -928 -696 -1561 -1724 -1749 -2840 -50 -292 -60 -424 -60 -760 0 -336 10
-468 60 -760 84 -500 278 -1034 539 -1485 212 -366 534 -768 843 -1051 742
-680 1621 -1081 2637 -1201 214 -25 768 -25 980 0 799 95 1491 353 2132 793
l122 84 153 -104 c1011 -685 2230 -941 3428 -720 609 112 1184 347 1718 701
l184 122 126 -88 c623 -434 1323 -695 2112 -786 187 -22 618 -30 810 -16 840
63 1594 324 2279 788 l154 104 36 -27 c106 -78 365 -243 492 -312 529 -291
1080 -463 1714 -539 213 -25 777 -25 990 0 807 96 1504 357 2150 808 984 686
1673 1765 1869 2929 49 289 60 425 60 755 0 421 -32 699 -125 1075 -400 1622
-1692 2906 -3334 3313 -385 96 -677 131 -1105 131 -480 1 -814 -44 -1263 -170
-464 -130 -890 -328 -1314 -610 l-173 -115 -122 84 c-1010 695 -2247 961
-3448 741 -645 -118 -1270 -380 -1810 -758 -52 -36 -99 -64 -105 -62 -5 2 -58
37 -117 79 -337 236 -772 453 -1175 586 -912 301 -1925 306 -2835 15 -426
-137 -881 -360 -1226 -601 -59 -42 -111 -77 -117 -79 -5 -2 -64 34 -130 81
-819 576 -1838 862 -2880 808z m740 -972 c437 -59 852 -190 1215 -382 108 -58
330 -191 330 -199 0 -3 -25 -34 -56 -70 -1151 -1343 -1389 -3284 -599 -4872
163 -327 348 -611 582 -889 42 -50 74 -92 72 -94 -16 -16 -250 -149 -359 -204
-425 -216 -839 -338 -1310 -386 -200 -21 -638 -16 -815 9 -447 63 -795 171
-1185 366 -920 460 -1608 1303 -1865 2285 -75 286 -104 492 -112 795 -11 425
42 799 167 1184 431 1324 1616 2291 3015 2460 196 24 200 24 495 21 205 -3
313 -9 425 -24z m5455 5 c447 -58 828 -175 1216 -375 128 -66 354 -200 354
-211 0 -3 -34 -46 -76 -95 -507 -602 -858 -1349 -988 -2105 -52 -298 -61 -413
-61 -765 1 -352 10 -470 61 -765 130 -758 461 -1469 964 -2069 81 -97 100
-125 89 -132 -69 -47 -255 -152 -367 -208 -532 -266 -1057 -391 -1645 -391
-575 0 -1114 129 -1639 391 -141 70 -378 208 -378 219 0 3 32 44 71 90 630
744 999 1697 1037 2675 45 1134 -312 2193 -1025 3049 -46 54 -83 102 -83 105
0 10 201 129 335 198 263 135 520 233 793 302 217 54 351 76 637 105 97 10
586 -3 705 -18z m5516 -5 c422 -57 792 -172 1159 -360 163 -84 375 -209 375
-222 0 -3 -41 -55 -91 -115 -696 -834 -1064 -1883 -1036 -2954 28 -1029 388
-1976 1046 -2750 44 -52 81 -98 81 -102 0 -10 -214 -136 -355 -208 -334 -171
-705 -293 -1075 -354 -215 -35 -352 -46 -592 -46 -576 0 -1109 126 -1630 386
-136 68 -388 213 -388 223 0 3 34 45 74 93 363 428 651 941 831 1483 143 430
211 820 222 1280 15 615 -83 1168 -308 1740 -170 434 -430 866 -738 1225 -45
52 -81 97 -81 100 0 12 258 159 415 235 417 203 835 321 1291 364 166 16 626
5 800 -18z m5299 18 c728 -62 1415 -336 1980 -787 184 -147 416 -376 557 -552
454 -566 722 -1234 779 -1945 14 -182 6 -551 -16 -715 -142 -1052 -717 -1959
-1611 -2543 -461 -301 -951 -481 -1534 -563 -158 -23 -706 -26 -870 -6 -540
67 -1008 225 -1450 488 -185 111 -175 89 -93 186 482 574 807 1227 962 1933
68 309 91 510 98 845 6 285 -4 475 -38 719 -115 823 -451 1578 -989 2220 -56
67 -101 123 -99 125 31 25 282 166 404 226 327 161 665 272 1001 329 104 17
164 24 374 44 84 8 435 6 545 -4z m-13896 -1359 c427 -530 688 -1168 763
-1860 16 -153 16 -595 -1 -735 -66 -556 -249 -1059 -556 -1525 -97 -147 -291
-399 -315 -408 -12 -5 -195 228 -286 363 -322 477 -516 1002 -586 1590 -20
168 -17 616 6 790 87 676 339 1268 769 1803 105 131 84 133 206 -18z m5433 60
c190 -227 349 -475 483 -753 544 -1130 436 -2469 -283 -3506 -76 -110 -251
-331 -262 -331 -11 0 -186 221 -262 331 -719 1037 -827 2376 -283 3506 121
251 274 495 434 691 42 52 82 103 90 113 8 11 17 18 21 17 4 -2 32 -32 62 -68z
m5515 -42 c431 -539 679 -1119 770 -1803 21 -163 24 -627 5 -785 -72 -592
-253 -1089 -569 -1568 -98 -148 -289 -395 -303 -390 -10 4 -105 119 -176 213
-383 508 -613 1084 -690 1725 -21 174 -24 569 -6 735 71 630 284 1191 644
1698 75 105 222 287 232 287 1 0 43 -51 93 -112z"/>
</g>
</svg>
