<svg xmlns="http://www.w3.org/2000/svg" xmlns:xlink="http://www.w3.org/1999/xlink" width="2000" zoomAndPan="magnify" viewBox="0 0 1500 1499.999933" height="2000" preserveAspectRatio="xMidYMid meet" version="1.0"><rect x="-150" width="1800" fill="#ffffff" y="-149.999993" height="1799.99992" fill-opacity="1"/><path fill="#000000" d="M 374.734375 899.25 L 321.429688 899.25 L 321.429688 827.957031 L 284.238281 827.957031 L 284.238281 1006.15625 L 321.429688 1006.15625 L 321.429688 926.4375 L 374.710938 926.4375 L 374.71875 1006.15625 L 411.925781 1006.15625 L 411.925781 827.957031 L 374.734375 827.957031 Z M 1262.09375 827.957031 L 1262.09375 855.15625 L 1312.613281 855.15625 L 1312.613281 1006.15625 L 1349.800781 1006.15625 L 1349.800781 855.15625 L 1400.308594 855.15625 L 1400.308594 827.957031 Z M 1065.734375 827.957031 L 1028.542969 827.957031 L 1028.542969 1006.15625 L 1134.921875 1006.15625 L 1134.921875 978.949219 L 1065.71875 978.949219 Z M 640.175781 976.515625 C 639.628906 978.367188 638.261719 978.871094 636.300781 978.871094 C 634.417969 978.871094 632.96875 978.140625 632.378906 976.429688 L 593.21875 827.964844 L 549.835938 827.964844 L 594.828125 990.523438 C 597.015625 1001.222656 604.144531 1006.179688 614.238281 1006.179688 L 648.546875 1006.179688 C 658.640625 1006.179688 665.171875 1001.027344 667.699219 990.777344 L 711.613281 827.964844 L 678.765625 827.964844 Z M 159.070312 855.792969 L 159.046875 978.3125 C 159.046875 998.132812 169.214844 1006.171875 186.820312 1006.171875 L 269.984375 1006.15625 L 269.984375 978.902344 L 209.835938 978.902344 C 199.519531 978.902344 196.210938 976.398438 196.210938 965.285156 L 196.257812 868.757812 C 196.257812 858.027344 198.742188 855.15625 209.859375 855.15625 L 269.984375 855.15625 L 269.984375 827.964844 L 186.898438 827.964844 C 167.886719 827.957031 159.070312 837.78125 159.070312 855.792969 Z M 471.441406 965.285156 L 471.457031 926.4375 L 545.367188 926.4375 L 545.367188 899.25 L 471.503906 899.25 L 471.496094 868.757812 C 471.496094 858.441406 473.773438 855.15625 485.105469 855.15625 L 546.152344 855.15625 L 546.152344 827.964844 L 462.109375 827.996094 C 442.898438 827.996094 434.304688 837.585938 434.304688 855.792969 L 434.28125 978.3125 C 434.28125 997.128906 443.449219 1006.171875 462.0625 1006.171875 L 553.898438 1006.15625 L 553.898438 978.902344 L 485.074219 978.902344 C 474.746094 978.902344 471.441406 976.59375 471.441406 965.285156 Z M 820.136719 930.859375 C 837.34375 930.859375 847.917969 923.03125 847.917969 903 L 847.886719 855.792969 C 847.886719 837.1875 839.117188 827.964844 820.089844 827.964844 L 716.445312 827.964844 L 716.445312 1006.15625 L 753.632812 1006.15625 L 753.632812 855.15625 L 797.089844 855.15625 C 808.605469 855.15625 810.691406 858.441406 810.691406 868.757812 L 810.738281 890.460938 C 810.738281 900.984375 807.835938 904.097656 797.121094 904.097656 L 776.800781 904.113281 C 768.910156 904.113281 764.472656 908.867188 764.472656 916.546875 C 764.472656 920.40625 766.433594 923.199219 767.984375 925.972656 L 814.933594 1006.164062 L 860.953125 1006.164062 L 811.789062 930.929688 Z M 978.203125 827.988281 L 896.269531 827.988281 C 876.648438 827.988281 868.472656 837.972656 868.472656 855.785156 L 868.441406 978.304688 C 868.441406 998.535156 879.21875 1006.164062 896.222656 1006.164062 L 978.21875 1006.164062 C 996.03125 1006.164062 1006.03125 997.726562 1006.03125 978.304688 L 1006 855.785156 C 1006 837.585938 997.417969 827.988281 978.203125 827.988281 Z M 955.238281 978.902344 L 919.230469 978.902344 C 908.515625 978.902344 905.613281 976 905.613281 965.285156 L 905.613281 868.757812 C 905.613281 859.445312 906.890625 855.15625 919.230469 855.15625 L 955.253906 855.15625 C 964.964844 855.15625 968.824219 856.828125 968.824219 868.757812 L 968.855469 965.285156 C 968.855469 976.785156 965.347656 978.902344 955.238281 978.902344 Z M 1179.300781 965.285156 L 1179.316406 926.4375 L 1253.230469 926.4375 L 1253.230469 899.25 L 1179.363281 899.25 L 1179.363281 868.757812 C 1179.363281 858.441406 1181.644531 855.15625 1192.964844 855.15625 L 1254.007812 855.15625 L 1254.007812 827.964844 L 1169.972656 827.996094 C 1150.742188 827.996094 1142.160156 837.585938 1142.160156 855.792969 L 1142.144531 978.3125 C 1142.144531 997.128906 1151.308594 1006.171875 1169.925781 1006.171875 L 1261.757812 1006.15625 L 1261.757812 978.902344 L 1192.9375 978.902344 C 1182.617188 978.902344 1179.300781 976.59375 1179.300781 965.285156 Z M 1105.148438 504.34375 L 907.078125 504.367188 C 902.019531 504.367188 898.703125 502.855469 898.703125 495.90625 L 898.703125 466.53125 C 898.703125 458.054688 894.144531 453.574219 885.863281 453.574219 L 659.125 453.582031 C 650.648438 453.582031 646.292969 458.351562 646.292969 466.453125 L 646.277344 495.828125 C 646.277344 502.03125 643.351562 504.289062 637.902344 504.289062 L 508.101562 504.328125 C 498.171875 504.328125 492.359375 509.066406 489.363281 515.292969 L 426.164062 638.828125 C 425.316406 640.46875 424.882812 642.214844 424.875 644.066406 C 424.875 648.960938 428.082031 655.269531 436.929688 655.269531 L 637.886719 655.246094 C 644.089844 655.246094 646.261719 658.066406 646.261719 663.707031 L 646.246094 693.082031 C 646.246094 701.929688 651.386719 705.960938 659.109375 705.960938 L 772.488281 705.953125 L 885.839844 705.945312 C 893.558594 705.945312 898.695312 702.210938 898.695312 693.160156 L 898.679688 663.785156 C 898.679688 657.777344 901.234375 655.324219 907.054688 655.324219 L 1033.066406 655.292969 C 1041.757812 655.292969 1048.007812 653.007812 1052.363281 644.914062 L 1114.84375 522.832031 C 1116.214844 520.195312 1117.171875 518.691406 1117.171875 515.554688 C 1117.195312 507.261719 1110.042969 504.34375 1105.148438 504.34375 Z M 1055.234375 553.554688 L 1025.113281 612.472656 C 1023.230469 615.886719 1019.867188 616.035156 1017.507812 616.035156 L 867.980469 616.035156 C 861.777344 616.035156 859.515625 618.851562 859.515625 624.488281 L 859.484375 658.375 C 859.484375 664.011719 857.023438 666.703125 851 666.703125 L 772.503906 666.703125 L 693.953125 666.71875 C 688.703125 666.71875 685.488281 664.875 685.488281 658.289062 L 685.472656 624.402344 C 685.472656 618.207031 682.632812 615.996094 677.007812 615.996094 L 493.6875 615.996094 C 489.183594 615.996094 486.070312 613.15625 486.070312 609.21875 C 486.070312 608.082031 486.359375 607 486.855469 606.058594 L 516.980469 547.140625 C 518.132812 545.050781 520.023438 543.617188 524.574219 543.617188 L 677.007812 543.625 C 682.265625 543.625 685.535156 541.507812 685.535156 535.121094 L 685.527344 501.238281 C 685.527344 495.222656 688.148438 492.808594 693.96875 492.808594 L 851.03125 492.800781 C 856.671875 492.800781 859.484375 495.308594 859.484375 501.316406 L 859.46875 535.195312 C 859.46875 541.019531 862.175781 543.601562 867.996094 543.601562 L 1048.410156 543.601562 C 1054.152344 543.601562 1056.03125 547.382812 1056.03125 550.378906 C 1056.015625 551.5 1055.75 552.558594 1055.234375 553.554688 Z M 1055.234375 553.554688 " fill-opacity="1" fill-rule="evenodd"/><path fill="#000000" d="M 928.164062 479.621094 C 928.164062 476.617188 925.722656 475.929688 923.191406 475.929688 L 917.132812 475.929688 L 917.132812 489.867188 L 919.09375 489.867188 L 919.09375 483.765625 L 921.800781 483.765625 L 925.785156 489.867188 L 927.972656 489.867188 L 923.824219 483.566406 C 926.3125 483.503906 928.164062 482.359375 928.164062 479.621094 Z M 922.742188 482.101562 L 919.09375 482.101562 L 919.09375 477.597656 L 922.820312 477.597656 C 924.28125 477.597656 926.210938 477.757812 926.210938 479.582031 C 926.203125 480.949219 925.558594 482.101562 922.742188 482.101562 Z M 922.742188 482.101562 " fill-opacity="1" fill-rule="evenodd"/><path fill="#000000" d="M 921.769531 470.453125 C 920.949219 470.449219 920.140625 470.527344 919.335938 470.683594 C 918.535156 470.84375 917.753906 471.078125 916.996094 471.386719 C 916.238281 471.699219 915.519531 472.082031 914.835938 472.535156 C 914.15625 472.988281 913.523438 473.503906 912.945312 474.078125 C 912.363281 474.65625 911.847656 475.285156 911.390625 475.964844 C 910.933594 476.644531 910.550781 477.363281 910.234375 478.117188 C 909.921875 478.875 909.683594 479.652344 909.523438 480.457031 C 909.359375 481.257812 909.28125 482.070312 909.277344 482.886719 C 909.277344 489.75 914.796875 495.316406 921.769531 495.316406 C 928.65625 495.316406 934.203125 489.804688 934.203125 482.878906 C 934.203125 476.023438 928.65625 470.453125 921.769531 470.453125 Z M 921.769531 493.355469 C 921.09375 493.335938 920.425781 493.253906 919.765625 493.105469 C 919.105469 492.957031 918.464844 492.746094 917.847656 492.476562 C 917.226562 492.203125 916.640625 491.875 916.082031 491.492188 C 915.527344 491.105469 915.015625 490.671875 914.542969 490.1875 C 914.070312 489.703125 913.648438 489.175781 913.28125 488.609375 C 912.910156 488.042969 912.597656 487.449219 912.34375 486.820312 C 912.089844 486.195312 911.898438 485.550781 911.765625 484.886719 C 911.636719 484.222656 911.574219 483.550781 911.574219 482.875 C 911.574219 482.199219 911.636719 481.53125 911.765625 480.867188 C 911.898438 480.203125 912.089844 479.558594 912.34375 478.929688 C 912.597656 478.304688 912.910156 477.707031 913.28125 477.140625 C 913.648438 476.574219 914.070312 476.050781 914.542969 475.566406 C 915.015625 475.082031 915.527344 474.644531 916.082031 474.261719 C 916.640625 473.875 917.226562 473.546875 917.847656 473.277344 C 918.464844 473.003906 919.105469 472.792969 919.765625 472.648438 C 920.425781 472.5 921.09375 472.417969 921.769531 472.398438 C 922.453125 472.398438 923.128906 472.464844 923.800781 472.601562 C 924.46875 472.734375 925.121094 472.933594 925.75 473.195312 C 926.382812 473.457031 926.980469 473.777344 927.550781 474.15625 C 928.117188 474.539062 928.644531 474.96875 929.128906 475.453125 C 929.609375 475.933594 930.042969 476.460938 930.421875 477.027344 C 930.800781 477.597656 931.121094 478.195312 931.382812 478.828125 C 931.644531 479.457031 931.84375 480.109375 931.976562 480.78125 C 932.113281 481.449219 932.179688 482.125 932.179688 482.808594 C 932.179688 488.652344 927.542969 493.355469 921.769531 493.355469 Z M 1427.792969 837.886719 C 1427.792969 834.890625 1425.347656 834.207031 1422.820312 834.207031 L 1416.757812 834.207031 L 1416.757812 848.128906 L 1418.71875 848.128906 L 1418.71875 842.035156 L 1421.425781 842.035156 L 1425.410156 848.128906 L 1427.597656 848.128906 L 1423.449219 841.832031 C 1425.933594 841.777344 1427.792969 840.621094 1427.792969 837.886719 Z M 1422.359375 840.363281 L 1418.710938 840.363281 L 1418.710938 835.863281 L 1422.4375 835.863281 C 1423.902344 835.863281 1425.832031 836.027344 1425.832031 837.855469 C 1425.832031 839.226562 1425.175781 840.363281 1422.359375 840.363281 Z M 1422.359375 840.363281 " fill-opacity="1" fill-rule="evenodd"/><path fill="#000000" d="M 1421.386719 828.722656 C 1414.46875 828.722656 1408.898438 834.300781 1408.898438 841.15625 C 1408.898438 848.011719 1414.414062 853.59375 1421.386719 853.59375 C 1428.273438 853.59375 1433.824219 848.074219 1433.824219 841.15625 C 1433.824219 834.300781 1428.273438 828.722656 1421.386719 828.722656 Z M 1421.386719 851.632812 C 1420.699219 851.632812 1420.019531 851.5625 1419.34375 851.429688 C 1418.667969 851.296875 1418.015625 851.097656 1417.378906 850.832031 C 1416.742188 850.570312 1416.140625 850.246094 1415.570312 849.867188 C 1414.996094 849.484375 1414.46875 849.050781 1413.980469 848.5625 C 1413.496094 848.078125 1413.058594 847.546875 1412.679688 846.976562 C 1412.296875 846.402344 1411.972656 845.800781 1411.710938 845.164062 C 1411.445312 844.53125 1411.25 843.875 1411.113281 843.199219 C 1410.980469 842.527344 1410.914062 841.84375 1410.914062 841.15625 C 1410.914062 840.46875 1410.980469 839.789062 1411.113281 839.113281 C 1411.25 838.4375 1411.445312 837.785156 1411.710938 837.148438 C 1411.972656 836.511719 1412.296875 835.910156 1412.679688 835.335938 C 1413.0625 834.765625 1413.496094 834.238281 1413.980469 833.75 C 1414.46875 833.265625 1414.996094 832.828125 1415.566406 832.449219 C 1416.140625 832.066406 1416.742188 831.742188 1417.378906 831.480469 C 1418.015625 831.214844 1418.667969 831.019531 1419.34375 830.882812 C 1420.019531 830.75 1420.699219 830.683594 1421.386719 830.683594 C 1422.070312 830.683594 1422.746094 830.75 1423.417969 830.886719 C 1424.089844 831.019531 1424.738281 831.21875 1425.371094 831.480469 C 1426 831.742188 1426.601562 832.0625 1427.167969 832.441406 C 1427.738281 832.820312 1428.261719 833.253906 1428.746094 833.738281 C 1429.230469 834.21875 1429.660156 834.746094 1430.039062 835.3125 C 1430.421875 835.882812 1430.742188 836.480469 1431.003906 837.113281 C 1431.265625 837.742188 1431.464844 838.394531 1431.597656 839.0625 C 1431.730469 839.734375 1431.800781 840.410156 1431.800781 841.09375 C 1431.800781 846.929688 1427.160156 851.632812 1421.386719 851.632812 Z M 1421.386719 851.632812 " fill-opacity="1" fill-rule="evenodd"/></svg>